<mxfile host="app.diagrams.net" modified="2023-04-17T09:58:03.141Z" agent="Mozilla/5.0 (Windows NT 10.0; Win64; x64) AppleWebKit/537.36 (KHTML, like Gecko) Chrome/112.0.0.0 Safari/537.36" etag="_T2LLCNyiv-uHkX_N7N7" version="21.1.8" type="device">
  <diagram name="PÃ¡gina-1" id="mFVSRA_eiBj_ijE-Athk">
    <mxGraphModel dx="2416" dy="865" grid="1" gridSize="10" guides="1" tooltips="1" connect="1" arrows="1" fold="1" page="1" pageScale="1" pageWidth="827" pageHeight="1169" background="#ffffff" math="0" shadow="0">
      <root>
        <mxCell id="0" />
        <mxCell id="1" parent="0" />
        <mxCell id="usZ_qT0qr6WuDhD8Z7Dc-47" value="" style="rounded=0;whiteSpace=wrap;html=1;fillColor=none;strokeColor=none;" vertex="1" parent="1">
          <mxGeometry x="-110" y="30" width="870" height="620" as="geometry" />
        </mxCell>
        <mxCell id="usZ_qT0qr6WuDhD8Z7Dc-1" value="&lt;div style=&quot;&quot;&gt;&lt;span style=&quot;background-color: initial;&quot;&gt;&lt;font data-font-src=&quot;https://fonts.googleapis.com/css?family=Coming+Soon&quot; face=&quot;Coming Soon&quot;&gt;Requirements:&lt;/font&gt;&lt;/span&gt;&lt;/div&gt;&lt;div style=&quot;&quot;&gt;&lt;ol&gt;&lt;li&gt;&lt;span style=&quot;background-color: initial;&quot;&gt;&lt;font data-font-src=&quot;https://fonts.googleapis.com/css?family=Coming+Soon&quot; face=&quot;Coming Soon&quot;&gt;Participants: Parser, Digit length validator, and Country code validator&lt;/font&gt;&lt;/span&gt;&lt;/li&gt;&lt;li&gt;&lt;span style=&quot;background-color: initial;&quot;&gt;&lt;font data-font-src=&quot;https://fonts.googleapis.com/css?family=Coming+Soon&quot; face=&quot;Coming Soon&quot;&gt;Start point: receives data&lt;/font&gt;&lt;/span&gt;&lt;/li&gt;&lt;li&gt;&lt;span style=&quot;background-color: initial;&quot;&gt;&lt;font data-font-src=&quot;https://fonts.googleapis.com/css?family=Coming+Soon&quot; face=&quot;Coming Soon&quot;&gt;End point: returns parsed phone number&lt;/font&gt;&lt;/span&gt;&lt;/li&gt;&lt;li&gt;&lt;span style=&quot;background-color: initial;&quot;&gt;&lt;font data-font-src=&quot;https://fonts.googleapis.com/css?family=Coming+Soon&quot; face=&quot;Coming Soon&quot;&gt;Key messages: Parsing and Validations&lt;/font&gt;&lt;/span&gt;&lt;/li&gt;&lt;/ol&gt;&lt;/div&gt;" style="text;html=1;strokeColor=none;fillColor=none;align=left;verticalAlign=middle;whiteSpace=wrap;rounded=0;fontStyle=1" vertex="1" parent="1">
          <mxGeometry x="40" y="40" width="280" height="160" as="geometry" />
        </mxCell>
        <mxCell id="usZ_qT0qr6WuDhD8Z7Dc-3" value="&lt;h2&gt;Code Library - Sequence Diagram&lt;/h2&gt;" style="text;html=1;strokeColor=none;fillColor=none;align=center;verticalAlign=middle;whiteSpace=wrap;rounded=0;fontFamily=Coming Soon;fontSource=https%3A%2F%2Ffonts.googleapis.com%2Fcss%3Ffamily%3DComing%2BSoon;fontStyle=5" vertex="1" parent="1">
          <mxGeometry x="440" y="40" width="320" height="30" as="geometry" />
        </mxCell>
        <mxCell id="usZ_qT0qr6WuDhD8Z7Dc-8" style="edgeStyle=orthogonalEdgeStyle;rounded=0;orthogonalLoop=1;jettySize=auto;html=1;entryX=0.5;entryY=0;entryDx=0;entryDy=0;endArrow=none;endFill=0;dashed=1;dashPattern=12 12;" edge="1" parent="1" source="usZ_qT0qr6WuDhD8Z7Dc-4" target="usZ_qT0qr6WuDhD8Z7Dc-7">
          <mxGeometry relative="1" as="geometry" />
        </mxCell>
        <mxCell id="usZ_qT0qr6WuDhD8Z7Dc-4" value="Parser" style="rounded=1;whiteSpace=wrap;html=1;fillColor=#f8cecc;strokeColor=#b85450;" vertex="1" parent="1">
          <mxGeometry x="80" y="200" width="120" height="60" as="geometry" />
        </mxCell>
        <mxCell id="usZ_qT0qr6WuDhD8Z7Dc-19" style="edgeStyle=orthogonalEdgeStyle;rounded=0;orthogonalLoop=1;jettySize=auto;html=1;entryX=0.5;entryY=0;entryDx=0;entryDy=0;endArrow=none;endFill=0;dashed=1;dashPattern=12 12;" edge="1" parent="1" source="usZ_qT0qr6WuDhD8Z7Dc-5" target="usZ_qT0qr6WuDhD8Z7Dc-12">
          <mxGeometry relative="1" as="geometry" />
        </mxCell>
        <mxCell id="usZ_qT0qr6WuDhD8Z7Dc-5" value="Digit length validator" style="rounded=1;whiteSpace=wrap;html=1;fillColor=#d5e8d4;strokeColor=#82b366;" vertex="1" parent="1">
          <mxGeometry x="354" y="200" width="120" height="60" as="geometry" />
        </mxCell>
        <mxCell id="usZ_qT0qr6WuDhD8Z7Dc-20" style="edgeStyle=orthogonalEdgeStyle;rounded=0;orthogonalLoop=1;jettySize=auto;html=1;entryX=0.5;entryY=0;entryDx=0;entryDy=0;dashed=1;endArrow=none;endFill=0;dashPattern=12 12;" edge="1" parent="1" source="usZ_qT0qr6WuDhD8Z7Dc-6" target="usZ_qT0qr6WuDhD8Z7Dc-13">
          <mxGeometry relative="1" as="geometry" />
        </mxCell>
        <mxCell id="usZ_qT0qr6WuDhD8Z7Dc-6" value="Country code validator" style="rounded=1;whiteSpace=wrap;html=1;fillColor=#dae8fc;strokeColor=#6c8ebf;" vertex="1" parent="1">
          <mxGeometry x="630" y="200" width="120" height="60" as="geometry" />
        </mxCell>
        <mxCell id="usZ_qT0qr6WuDhD8Z7Dc-7" value="" style="rounded=1;whiteSpace=wrap;html=1;fillColor=#f5f5f5;fontColor=#333333;strokeColor=#666666;" vertex="1" parent="1">
          <mxGeometry x="120" y="320" width="40" height="280" as="geometry" />
        </mxCell>
        <mxCell id="usZ_qT0qr6WuDhD8Z7Dc-10" value="" style="endArrow=blockThin;html=1;rounded=0;endFill=1;" edge="1" parent="1">
          <mxGeometry width="50" height="50" relative="1" as="geometry">
            <mxPoint x="160" y="350" as="sourcePoint" />
            <mxPoint x="160" y="380" as="targetPoint" />
            <Array as="points">
              <mxPoint x="200" y="350" />
              <mxPoint x="200" y="380" />
            </Array>
          </mxGeometry>
        </mxCell>
        <mxCell id="usZ_qT0qr6WuDhD8Z7Dc-11" value="Delete all symbols except numbers" style="text;html=1;strokeColor=none;fillColor=none;align=center;verticalAlign=middle;whiteSpace=wrap;rounded=0;fontStyle=1" vertex="1" parent="1">
          <mxGeometry x="200" y="350" width="110" height="30" as="geometry" />
        </mxCell>
        <mxCell id="usZ_qT0qr6WuDhD8Z7Dc-42" style="edgeStyle=orthogonalEdgeStyle;rounded=0;orthogonalLoop=1;jettySize=auto;html=1;exitX=0.5;exitY=1;exitDx=0;exitDy=0;dashed=1;dashPattern=12 12;endArrow=none;endFill=0;" edge="1" parent="1" source="usZ_qT0qr6WuDhD8Z7Dc-12">
          <mxGeometry relative="1" as="geometry">
            <mxPoint x="414" y="640" as="targetPoint" />
          </mxGeometry>
        </mxCell>
        <mxCell id="usZ_qT0qr6WuDhD8Z7Dc-12" value="" style="rounded=1;whiteSpace=wrap;html=1;fillColor=#f5f5f5;fontColor=#333333;strokeColor=#666666;" vertex="1" parent="1">
          <mxGeometry x="394" y="400" width="40" height="60" as="geometry" />
        </mxCell>
        <mxCell id="usZ_qT0qr6WuDhD8Z7Dc-43" style="edgeStyle=orthogonalEdgeStyle;rounded=0;orthogonalLoop=1;jettySize=auto;html=1;exitX=0.5;exitY=1;exitDx=0;exitDy=0;dashed=1;dashPattern=12 12;endArrow=none;endFill=0;" edge="1" parent="1" source="usZ_qT0qr6WuDhD8Z7Dc-13">
          <mxGeometry relative="1" as="geometry">
            <mxPoint x="690" y="640" as="targetPoint" />
          </mxGeometry>
        </mxCell>
        <mxCell id="usZ_qT0qr6WuDhD8Z7Dc-13" value="" style="rounded=1;whiteSpace=wrap;html=1;fillColor=#f5f5f5;fontColor=#333333;strokeColor=#666666;" vertex="1" parent="1">
          <mxGeometry x="670" y="500" width="40" height="60" as="geometry" />
        </mxCell>
        <mxCell id="usZ_qT0qr6WuDhD8Z7Dc-26" value="" style="ellipse;whiteSpace=wrap;html=1;aspect=fixed;fillColor=#000000;" vertex="1" parent="1">
          <mxGeometry x="-80" y="320" width="40" height="40" as="geometry" />
        </mxCell>
        <mxCell id="usZ_qT0qr6WuDhD8Z7Dc-28" value="Data to parse" style="text;html=1;strokeColor=none;fillColor=none;align=center;verticalAlign=middle;whiteSpace=wrap;rounded=0;" vertex="1" parent="1">
          <mxGeometry x="-40" y="320" width="160" height="20" as="geometry" />
        </mxCell>
        <mxCell id="usZ_qT0qr6WuDhD8Z7Dc-29" value="Parser Client" style="text;html=1;strokeColor=none;fillColor=none;align=center;verticalAlign=middle;whiteSpace=wrap;rounded=0;" vertex="1" parent="1">
          <mxGeometry x="-105" y="360" width="90" height="30" as="geometry" />
        </mxCell>
        <mxCell id="usZ_qT0qr6WuDhD8Z7Dc-31" value="Validate number length" style="text;html=1;strokeColor=none;fillColor=none;align=center;verticalAlign=middle;whiteSpace=wrap;rounded=0;" vertex="1" parent="1">
          <mxGeometry x="200" y="400" width="160" height="20" as="geometry" />
        </mxCell>
        <mxCell id="usZ_qT0qr6WuDhD8Z7Dc-32" value="" style="endArrow=none;html=1;rounded=0;exitX=1;exitY=0.25;exitDx=0;exitDy=0;endFill=0;entryX=-0.029;entryY=0.125;entryDx=0;entryDy=0;entryPerimeter=0;startArrow=blockThin;startFill=1;dashed=1;" edge="1" parent="1">
          <mxGeometry width="50" height="50" relative="1" as="geometry">
            <mxPoint x="160" y="440" as="sourcePoint" />
            <mxPoint x="393" y="440" as="targetPoint" />
          </mxGeometry>
        </mxCell>
        <mxCell id="usZ_qT0qr6WuDhD8Z7Dc-33" value="Result length validation" style="text;html=1;strokeColor=none;fillColor=none;align=center;verticalAlign=middle;whiteSpace=wrap;rounded=0;" vertex="1" parent="1">
          <mxGeometry x="200" y="420" width="160" height="20" as="geometry" />
        </mxCell>
        <mxCell id="usZ_qT0qr6WuDhD8Z7Dc-35" value="" style="endArrow=blockThin;html=1;rounded=0;exitX=1;exitY=0.25;exitDx=0;exitDy=0;endFill=1;entryX=-0.029;entryY=0.125;entryDx=0;entryDy=0;entryPerimeter=0;startArrow=none;startFill=0;" edge="1" parent="1">
          <mxGeometry width="50" height="50" relative="1" as="geometry">
            <mxPoint x="160" y="420" as="sourcePoint" />
            <mxPoint x="393" y="420" as="targetPoint" />
          </mxGeometry>
        </mxCell>
        <mxCell id="usZ_qT0qr6WuDhD8Z7Dc-37" value="" style="endArrow=blockThin;html=1;rounded=0;endFill=1;" edge="1" parent="1">
          <mxGeometry width="50" height="50" relative="1" as="geometry">
            <mxPoint x="160" y="519.41" as="sourcePoint" />
            <mxPoint x="670" y="519.41" as="targetPoint" />
          </mxGeometry>
        </mxCell>
        <mxCell id="usZ_qT0qr6WuDhD8Z7Dc-38" value="Validate country code" style="text;html=1;strokeColor=none;fillColor=none;align=center;verticalAlign=middle;whiteSpace=wrap;rounded=0;" vertex="1" parent="1">
          <mxGeometry x="440" y="490" width="220" height="30" as="geometry" />
        </mxCell>
        <mxCell id="usZ_qT0qr6WuDhD8Z7Dc-39" value="" style="endArrow=none;html=1;rounded=0;endFill=0;startArrow=blockThin;startFill=1;dashed=1;" edge="1" parent="1">
          <mxGeometry width="50" height="50" relative="1" as="geometry">
            <mxPoint x="160" y="539.41" as="sourcePoint" />
            <mxPoint x="670" y="539.41" as="targetPoint" />
          </mxGeometry>
        </mxCell>
        <mxCell id="usZ_qT0qr6WuDhD8Z7Dc-40" value="Validate country code" style="text;html=1;strokeColor=none;fillColor=none;align=center;verticalAlign=middle;whiteSpace=wrap;rounded=0;" vertex="1" parent="1">
          <mxGeometry x="440" y="520" width="220" height="20" as="geometry" />
        </mxCell>
        <mxCell id="usZ_qT0qr6WuDhD8Z7Dc-41" value="" style="endArrow=none;html=1;rounded=0;exitX=0.5;exitY=1;exitDx=0;exitDy=0;dashed=1;dashPattern=12 12;" edge="1" parent="1" source="usZ_qT0qr6WuDhD8Z7Dc-7">
          <mxGeometry width="50" height="50" relative="1" as="geometry">
            <mxPoint x="250" y="580" as="sourcePoint" />
            <mxPoint x="140" y="640" as="targetPoint" />
          </mxGeometry>
        </mxCell>
        <mxCell id="usZ_qT0qr6WuDhD8Z7Dc-44" value="" style="endArrow=blockThin;html=1;rounded=0;endFill=1;" edge="1" parent="1">
          <mxGeometry width="50" height="50" relative="1" as="geometry">
            <mxPoint x="-40" y="339.8" as="sourcePoint" />
            <mxPoint x="120" y="339.8" as="targetPoint" />
          </mxGeometry>
        </mxCell>
        <mxCell id="usZ_qT0qr6WuDhD8Z7Dc-45" value="" style="endArrow=classic;html=1;rounded=0;entryX=0.5;entryY=1;entryDx=0;entryDy=0;dashed=1;" edge="1" parent="1" target="usZ_qT0qr6WuDhD8Z7Dc-29">
          <mxGeometry width="50" height="50" relative="1" as="geometry">
            <mxPoint x="120" y="580" as="sourcePoint" />
            <mxPoint x="-60" y="490" as="targetPoint" />
            <Array as="points">
              <mxPoint x="-60" y="580" />
            </Array>
          </mxGeometry>
        </mxCell>
        <mxCell id="usZ_qT0qr6WuDhD8Z7Dc-46" value="Parsed phone number" style="text;html=1;strokeColor=none;fillColor=none;align=center;verticalAlign=middle;whiteSpace=wrap;rounded=0;" vertex="1" parent="1">
          <mxGeometry x="-50" y="560" width="160" height="20" as="geometry" />
        </mxCell>
      </root>
    </mxGraphModel>
  </diagram>
</mxfile>
